<?xml version="1.0" encoding="utf-8"?>
<!-- Generator: Adobe Illustrator 24.1.1, SVG Export Plug-In . SVG Version: 6.00 Build 0)  -->
<svg version="1.1" id="Layer_1" xmlns="http://www.w3.org/2000/svg" xmlns:xlink="http://www.w3.org/1999/xlink" x="0px" y="0px"
	 viewBox="0 0 13.7 16.3" style="enable-background:new 0 0 13.7 16.3;" xml:space="preserve">
<style type="text/css">
	.st0{clip-path:url(#SVGID_2_);}
	.st1{fill:#54ECE6;}
	.st2{fill:#FFEBD2;}
	.st3{fill:#FFF3E4;}
	.st4{fill:#49D3CE;}
	.st5{fill:#AE8164;}
	.st6{fill:#A2785D;}
	.st7{fill:#AC8164;}
	.st8{fill:#A47C61;}
	.st9{fill:#333333;}
	.st10{fill:#77A0D4;}
	.st11{fill:none;stroke:#333333;stroke-width:1.4;stroke-linecap:round;stroke-linejoin:round;stroke-miterlimit:10;}
	.st12{fill:none;stroke:#333333;stroke-width:1.4;stroke-linejoin:round;stroke-miterlimit:10;}
	.st13{fill:#77A0D4;stroke:#333333;stroke-width:1.4;stroke-linejoin:round;stroke-miterlimit:10;}
	.st14{fill:#1D194D;}
	.st15{clip-path:url(#Mask-2_1_);fill:url(#);stroke:#FFFFFF;stroke-width:2;stroke-miterlimit:10;}
	.st16{fill:#1D1B4C;}
	.st17{fill:none;stroke:#FFFFFF;stroke-width:2;stroke-miterlimit:10;}
	.st18{fill:none;stroke:#FFFFFF;stroke-width:3;stroke-miterlimit:10;}
	.st19{fill:#221F1F;}
	.st20{fill:#464A51;}
	.st21{fill:#FFFFFF;}
	.st22{fill:#323643;}
	.st23{fill:#32A562;}
	.st24{fill:#1D1C1C;}
	.st25{fill:#0B2031;}
	.st26{opacity:0.2;fill:#4C4B5E;}
	.st27{fill:#1C1C1C;}
	.st28{fill:none;stroke:#1C1C1C;stroke-width:0.13;stroke-miterlimit:10;}
	.st29{fill:#2F2B2B;}
	.st30{fill:none;stroke:#000000;stroke-width:0.13;stroke-miterlimit:10;}
	.st31{fill:#272323;}
	.st32{fill:none;stroke:#1C1C1C;stroke-width:0.33;stroke-miterlimit:10;}
	.st33{fill:#54FEBD;}
	.st34{fill:none;stroke:#1D194D;stroke-width:0.17;stroke-miterlimit:10;}
	.st35{fill:#F0F3F8;}
	.st36{fill:#1B2749;}
	.st37{opacity:0.8745;fill:#49D3CE;}
	.st38{fill:#48D0CB;}
	.st39{fill:none;stroke:#1B2749;stroke-width:3.000000e-02;stroke-miterlimit:10;}
	.st40{fill:#FCD3AC;}
	.st41{fill:#FCBC85;}
	.st42{fill:#3B2519;}
	.st43{fill:#F7945E;}
	.st44{fill:#F9AA8D;}
	.st45{fill:#FA7268;}
	.st46{fill:#35A8A3;}
	.st47{fill:#35A7A3;}
	.st48{opacity:0.302;fill:#F7B500;}
	.st49{fill:#F0D217;}
	.st50{clip-path:url(#SVGID_6_);}
	.st51{clip-path:url(#SVGID_10_);}
	.st52{fill:none;stroke:#1D194D;stroke-width:0.33;stroke-miterlimit:10;}
	.st53{fill:#FDB3CB;}
	.st54{fill:none;stroke:#1D194D;stroke-width:0.67;stroke-miterlimit:10;}
	.st55{fill:#F9596C;}
	.st56{fill:#1F1B4E;}
	.st57{fill:#F1F3F8;}
	.st58{clip-path:url(#SVGID_14_);}
	.st59{clip-path:url(#SVGID_18_);}
	.st60{fill:#06090C;}
	.st61{fill:none;stroke:#000000;stroke-width:0.19;stroke-miterlimit:10;}
	.st62{clip-path:url(#SVGID_22_);}
	.st63{fill:#D4A07F;}
	.st64{fill:#C09478;}
	.st65{fill:#D1A080;}
	.st66{fill:#E0B08F;}
	.st67{fill:#D93939;}
	.st68{fill:none;stroke:#333333;stroke-width:0.67;stroke-linecap:round;stroke-linejoin:round;stroke-miterlimit:10;}
	.st69{fill:none;stroke:#333333;stroke-width:0.67;stroke-linejoin:round;stroke-miterlimit:10;}
	.st70{fill:#3B5998;}
	.st71{fill:#FBBB00;}
	.st72{fill:#518EF8;}
	.st73{fill:#28B446;}
	.st74{fill:#F14336;}
	.st75{fill:#00ACED;}
	.st76{fill:#2C2862;}
	.st77{fill:none;stroke:#49D3CE;stroke-width:0.13;stroke-miterlimit:10;}
	.st78{fill:#D8D8D8;}
	.st79{fill:none;stroke:#FE7289;stroke-width:0.33;stroke-linecap:round;stroke-linejoin:round;stroke-miterlimit:10;}
	.st80{clip-path:url(#SVGID_28_);}
	.st81{clip-path:url(#SVGID_32_);}
	.st82{clip-path:url(#SVGID_36_);}
	.st83{clip-path:url(#SVGID_40_);}
	.st84{clip-path:url(#SVGID_44_);}
	.st85{clip-path:url(#SVGID_48_);}
	.st86{clip-path:url(#SVGID_52_);}
	.st87{clip-path:url(#SVGID_56_);}
	.st88{clip-path:url(#SVGID_60_);}
	.st89{clip-path:url(#SVGID_64_);}
	.st90{fill:none;stroke:#FFFFFF;stroke-linecap:round;stroke-linejoin:round;stroke-miterlimit:10;}
	.st91{fill:url(#SVGID_67_);}
	.st92{fill:url(#SVGID_68_);}
	.st93{fill:url(#SVGID_69_);}
	.st94{fill:#475993;}
	.st95{fill:#F61C0D;}
	.st96{opacity:0.149;fill:#FA7268;}
	.st97{opacity:0.149;fill:#00BF4B;}
	.st98{fill:#00BF4B;}
	.st99{fill:#8886A0;}
</style>
<path class="st38" d="M7,0.7C7,0.3,7.3,0,7.7,0h3.1C10.9,0,11,0.1,11,0.2v0.9c0,0.6-0.5,1.1-1.1,1.1H7V0.7z"/>
<path class="st38" d="M0.9,1.1V0.2C0.9,0.1,1,0,1.1,0h3.1c0.4,0,0.7,0.3,0.7,0.7v1.5H2C1.4,2.2,0.9,1.7,0.9,1.1z"/>
<path class="st36" d="M12.8,4.8c0,0.1-0.1,0.2-0.2,0.2H8.4V3.3h4.2c0.1,0,0.2,0.1,0.2,0.2V4.8z M5.3,5.1V3.3h2.6v1.8H5.3z M0.7,5.1
	C0.5,5.1,0.4,5,0.4,4.8V3.5c0-0.1,0.1-0.2,0.2-0.2h4.2v1.8H0.7z M1.5,1.8V0.9c0-0.1,0.1-0.2,0.2-0.2h3.1c0.4,0,0.7,0.3,0.7,0.7v1.5
	H2.6C2,2.9,1.5,2.4,1.5,1.8z M7.7,1.3C7.7,1,8,0.7,8.4,0.7h3.1c0.1,0,0.2,0.1,0.2,0.2v0.9c0,0.6-0.5,1.1-1.1,1.1H7.7V1.3z M7.3,2
	v0.9H5.9V2H7.3z M12.5,2.9h-0.9c0.3-0.3,0.5-0.7,0.5-1.1V0.9c0-0.4-0.3-0.7-0.7-0.7H8.4c-0.6,0-1.1,0.5-1.1,1.1v0.2H5.9V1.3
	c0-0.6-0.5-1.1-1.1-1.1H1.8c-0.4,0-0.7,0.3-0.7,0.7v0.9c0,0.4,0.2,0.8,0.5,1.1H0.7C0.3,2.9,0,3.2,0,3.5v1.3c0,0.4,0.3,0.7,0.7,0.7
	v7.3c0,0.4,0.3,0.7,0.7,0.7h2.2V13H1.3c-0.1,0-0.2-0.1-0.2-0.2V5.5h4.4v1.8h0.4V5.5h1.3v1.8h0.4V5.5h4.4v1.8h0.4V5.5
	c0.4,0,0.7-0.3,0.7-0.7V3.5C13.2,3.2,12.9,2.9,12.5,2.9z"/>
<path class="st38" d="M9.3,11c-0.1,0.1-0.1,0.1-0.1,0.2l0.3,1.5L8.2,12c-0.1,0-0.2,0-0.2,0l-1.3,0.7l0.3-1.5c0-0.1,0-0.2-0.1-0.2
	l-1-1.1l1.5-0.2c0.1,0,0.2-0.1,0.2-0.1L8,8.2l0.6,1.4c0,0.1,0.1,0.1,0.2,0.1l1.4,0.2L9.3,11z M9.1,9.2L8.3,7.5
	c0-0.1-0.1-0.2-0.2-0.2S7.9,7.4,7.8,7.5L7,9.2L5.1,9.5C5,9.5,5,9.5,4.9,9.6c0,0.1,0,0.2,0.1,0.3l1.3,1.3L6,13.2c0,0.1,0,0.2,0.1,0.3
	c0.1,0.1,0.2,0.1,0.3,0L8,12.6l1.6,0.9c0,0,0.1,0,0.1,0c0.1,0,0.1,0,0.2,0c0.1-0.1,0.1-0.2,0.1-0.3l-0.3-1.9l1.3-1.3
	c0.1-0.1,0.1-0.2,0.1-0.3S11,9.5,10.9,9.5L9.1,9.2z M9.6,14.4c-0.4,0.2-0.8,0.3-1.3,0.3c-0.1,0-0.2,0-0.3,0s-0.2,0-0.3,0
	c-0.4,0-0.9-0.1-1.3-0.3C4.7,13.6,3.6,11.6,4,9.6c0.4-2,2.1-3.5,4.1-3.5c2,0,3.7,1.5,4.1,3.5C12.5,11.6,11.4,13.6,9.6,14.4z M8,5.5
	C6,5.5,4.2,6.9,3.6,9c-0.6,2,0.1,4.2,1.8,5.4c0.7,0.5,1.5,0.8,2.4,0.8c0.1,0,0.2,0,0.3,0s0.2,0,0.3,0c2.5-0.1,4.5-2.4,4.4-5
	C12.7,7.6,10.6,5.5,8,5.5z M13.5,11.1c0.1,0.2,0.2,0.4,0.1,0.6c0,0.2-0.2,0.4-0.3,0.5c-0.4,0.3-0.7,0.8-0.6,1.3c0,0.2,0,0.4-0.2,0.6
	c-0.1,0.2-0.3,0.3-0.5,0.3c-0.4,0-0.7,0.2-0.9,0.5C11,15,11,15.2,10.9,15.3c-0.1,0.2-0.2,0.3-0.4,0.4c0,0,0,0,0,0
	c-0.2,0.1-0.4,0.1-0.6,0c-0.5-0.2-1,0-1.4,0.3c-0.1,0.1-0.2,0.2-0.3,0.2c-0.2,0.1-0.4,0.1-0.5,0c-0.1,0-0.2-0.1-0.3-0.2
	c-0.3-0.3-0.6-0.4-0.9-0.4c-0.1,0-0.3,0-0.4,0.1c-0.2,0.1-0.4,0.1-0.6,0c0,0,0,0,0,0c-0.2-0.1-0.3-0.3-0.4-0.4
	c0-0.1-0.1-0.2-0.2-0.3c-0.2-0.3-0.6-0.5-0.9-0.5c-0.2,0-0.4-0.1-0.5-0.3c-0.1-0.2-0.2-0.4-0.2-0.6c0.1-0.5-0.2-1-0.6-1.3
	c-0.2-0.1-0.3-0.3-0.3-0.5c0-0.2,0-0.4,0.1-0.6c0.3-0.4,0.3-1,0-1.4C2.4,9.5,2.4,9.3,2.5,9.1c0-0.2,0.2-0.4,0.3-0.5
	c0.4-0.3,0.7-0.8,0.6-1.3c0-0.2,0-0.4,0.2-0.6c0.1-0.2,0.3-0.3,0.5-0.3C4.6,6.3,5,6,5.2,5.5C5.2,5.3,5.4,5.1,5.6,5
	C5.8,4.9,6,4.9,6.1,5c0.5,0.2,1,0.1,1.4-0.3C7.6,4.5,7.8,4.5,8,4.5c0.2,0,0.4,0.1,0.5,0.2C8.9,5.1,9.5,5.2,9.9,5
	c0.2-0.1,0.4-0.1,0.6,0c0.2,0.1,0.3,0.3,0.4,0.5C11.1,6,11.5,6.3,12,6.4c0.2,0,0.4,0.1,0.5,0.3c0.1,0.2,0.2,0.4,0.2,0.6
	c-0.1,0.5,0.2,1,0.6,1.3c0.2,0.1,0.3,0.3,0.3,0.5c0.1,0.2,0,0.4-0.1,0.6C13.3,10.1,13.3,10.7,13.5,11.1z"/>
<path class="st36" d="M9.3,11c-0.1,0.1-0.1,0.1-0.1,0.2l0.3,1.5L8.2,12c-0.1,0-0.2,0-0.2,0l-1.3,0.7l0.3-1.5c0-0.1,0-0.2-0.1-0.2
	l-1-1.1l1.5-0.2c0.1,0,0.2-0.1,0.2-0.1L8,8.2l0.6,1.4c0,0.1,0.1,0.1,0.2,0.1l1.4,0.2L9.3,11z"/>
</svg>
