<?xml version="1.0" encoding="utf-8"?>
<!-- Generator: Adobe Illustrator 24.1.1, SVG Export Plug-In . SVG Version: 6.00 Build 0)  -->
<svg version="1.1" id="Layer_1" xmlns="http://www.w3.org/2000/svg" xmlns:xlink="http://www.w3.org/1999/xlink" x="0px" y="0px"
	 viewBox="0 0 12.6 13.7" style="enable-background:new 0 0 12.6 13.7;" xml:space="preserve">
<style type="text/css">
	.st0{clip-path:url(#SVGID_2_);}
	.st1{fill:#54ECE6;}
	.st2{fill:#FFEBD2;}
	.st3{fill:#FFF3E4;}
	.st4{fill:#49D3CE;}
	.st5{fill:#AE8164;}
	.st6{fill:#A2785D;}
	.st7{fill:#AC8164;}
	.st8{fill:#A47C61;}
	.st9{fill:#333333;}
	.st10{fill:#77A0D4;}
	.st11{fill:none;stroke:#333333;stroke-width:1.4;stroke-linecap:round;stroke-linejoin:round;stroke-miterlimit:10;}
	.st12{fill:none;stroke:#333333;stroke-width:1.4;stroke-linejoin:round;stroke-miterlimit:10;}
	.st13{fill:#77A0D4;stroke:#333333;stroke-width:1.4;stroke-linejoin:round;stroke-miterlimit:10;}
	.st14{fill:#1D194D;}
	.st15{clip-path:url(#Mask-2_1_);fill:url(#);stroke:#FFFFFF;stroke-width:2;stroke-miterlimit:10;}
	.st16{fill:#1D1B4C;}
	.st17{fill:none;stroke:#FFFFFF;stroke-width:2;stroke-miterlimit:10;}
	.st18{fill:none;stroke:#FFFFFF;stroke-width:3;stroke-miterlimit:10;}
	.st19{fill:#221F1F;}
	.st20{fill:#464A51;}
	.st21{fill:#FFFFFF;}
	.st22{fill:#323643;}
	.st23{fill:#32A562;}
	.st24{fill:#1D1C1C;}
	.st25{fill:#0B2031;}
	.st26{opacity:0.2;fill:#4C4B5E;}
	.st27{fill:#1C1C1C;}
	.st28{fill:none;stroke:#1C1C1C;stroke-width:0.13;stroke-miterlimit:10;}
	.st29{fill:#2F2B2B;}
	.st30{fill:none;stroke:#000000;stroke-width:0.13;stroke-miterlimit:10;}
	.st31{fill:#272323;}
	.st32{fill:none;stroke:#1C1C1C;stroke-width:0.33;stroke-miterlimit:10;}
	.st33{fill:#54FEBD;}
	.st34{fill:none;stroke:#1D194D;stroke-width:0.17;stroke-miterlimit:10;}
	.st35{fill:#F0F3F8;}
	.st36{fill:#1B2749;}
	.st37{opacity:0.8745;fill:#49D3CE;}
	.st38{fill:#48D0CB;}
	.st39{fill:none;stroke:#1B2749;stroke-width:3.000000e-02;stroke-miterlimit:10;}
	.st40{fill:#FCD3AC;}
	.st41{fill:#FCBC85;}
	.st42{fill:#3B2519;}
	.st43{fill:#F7945E;}
	.st44{fill:#F9AA8D;}
	.st45{fill:#FA7268;}
	.st46{fill:#35A8A3;}
	.st47{fill:#35A7A3;}
	.st48{opacity:0.302;fill:#F7B500;}
	.st49{fill:#F0D217;}
	.st50{clip-path:url(#SVGID_6_);}
	.st51{clip-path:url(#SVGID_10_);}
	.st52{fill:none;stroke:#1D194D;stroke-width:0.33;stroke-miterlimit:10;}
	.st53{fill:#FDB3CB;}
	.st54{fill:none;stroke:#1D194D;stroke-width:0.67;stroke-miterlimit:10;}
	.st55{fill:#F9596C;}
	.st56{fill:#1F1B4E;}
	.st57{fill:#F1F3F8;}
	.st58{clip-path:url(#SVGID_14_);}
	.st59{clip-path:url(#SVGID_18_);}
	.st60{fill:#06090C;}
	.st61{fill:none;stroke:#000000;stroke-width:0.19;stroke-miterlimit:10;}
	.st62{clip-path:url(#SVGID_22_);}
	.st63{fill:#D4A07F;}
	.st64{fill:#C09478;}
	.st65{fill:#D1A080;}
	.st66{fill:#E0B08F;}
	.st67{fill:#D93939;}
	.st68{fill:none;stroke:#333333;stroke-width:0.67;stroke-linecap:round;stroke-linejoin:round;stroke-miterlimit:10;}
	.st69{fill:none;stroke:#333333;stroke-width:0.67;stroke-linejoin:round;stroke-miterlimit:10;}
	.st70{fill:#3B5998;}
	.st71{fill:#FBBB00;}
	.st72{fill:#518EF8;}
	.st73{fill:#28B446;}
	.st74{fill:#F14336;}
	.st75{fill:#00ACED;}
	.st76{fill:#2C2862;}
	.st77{fill:none;stroke:#49D3CE;stroke-width:0.13;stroke-miterlimit:10;}
	.st78{fill:#D8D8D8;}
	.st79{fill:none;stroke:#FE7289;stroke-width:0.33;stroke-linecap:round;stroke-linejoin:round;stroke-miterlimit:10;}
	.st80{clip-path:url(#SVGID_28_);}
	.st81{clip-path:url(#SVGID_32_);}
	.st82{clip-path:url(#SVGID_36_);}
	.st83{clip-path:url(#SVGID_40_);}
	.st84{clip-path:url(#SVGID_44_);}
	.st85{clip-path:url(#SVGID_48_);}
	.st86{clip-path:url(#SVGID_52_);}
	.st87{clip-path:url(#SVGID_56_);}
	.st88{clip-path:url(#SVGID_60_);}
	.st89{clip-path:url(#SVGID_64_);}
	.st90{fill:none;stroke:#FFFFFF;stroke-linecap:round;stroke-linejoin:round;stroke-miterlimit:10;}
	.st91{fill:url(#SVGID_67_);}
	.st92{fill:url(#SVGID_68_);}
	.st93{fill:url(#SVGID_69_);}
	.st94{fill:#475993;}
	.st95{fill:#F61C0D;}
	.st96{opacity:0.149;fill:#FA7268;}
	.st97{opacity:0.149;fill:#00BF4B;}
	.st98{fill:#00BF4B;}
	.st99{fill:#8886A0;}
</style>
<path class="st36" d="M6,6.2h0.3c0.1,0,0.2-0.1,0.2-0.2S6.3,5.8,6.2,5.8H6.1V5.4c0-0.1-0.1-0.2-0.2-0.2S5.7,5.3,5.7,5.4v0.5
	C5.7,6,5.8,6.2,6,6.2z"/>
<path class="st36" d="M4.9,5C4.8,5,4.7,5.1,4.7,5.2v0.4c0,0.1,0.1,0.2,0.2,0.2s0.2-0.1,0.2-0.2V5.2C5.1,5.1,5,5,4.9,5z"/>
<path class="st36" d="M7.2,5.8c0.1,0,0.2-0.1,0.2-0.2V5.2C7.3,5.1,7.3,5,7.2,5S7,5.1,7,5.2v0.4C7,5.7,7,5.8,7.2,5.8z"/>
<path class="st36" d="M6.7,7c0.1-0.1,0.1-0.2,0-0.3c-0.1-0.1-0.2-0.1-0.3,0C6.3,6.8,6.2,6.8,6,6.8S5.8,6.8,5.7,6.7
	c-0.1-0.1-0.2-0.1-0.3,0C5.3,6.8,5.3,6.9,5.4,7C5.6,7.2,5.8,7.3,6,7.3C6.3,7.3,6.5,7.2,6.7,7z"/>
<path class="st36" d="M3.3,3.1V2.5h0.5c0.1,0,0.2-0.1,0.2-0.2S4,2.1,3.9,2.1H3.1C3,2.1,2.9,2.2,2.9,2.3v0.8c0,0.1,0.1,0.2,0.2,0.2
	C3.2,3.3,3.3,3.2,3.3,3.1z"/>
<path class="st36" d="M9,3.3c0.1,0,0.2-0.1,0.2-0.2V2.3c0-0.1-0.1-0.2-0.2-0.2H8.2C8.1,2.1,8,2.2,8,2.3s0.1,0.2,0.2,0.2h0.5v0.5
	C8.8,3.2,8.8,3.3,9,3.3z"/>
<path class="st36" d="M3.1,7.2C3,7.2,2.9,7.3,2.9,7.4v0.8c0,0.1,0.1,0.2,0.2,0.2h0.8c0.1,0,0.2-0.1,0.2-0.2C4.1,8,4,7.9,3.9,7.9H3.3
	V7.4C3.3,7.3,3.2,7.2,3.1,7.2z"/>
<path class="st36" d="M3.5,1.1c0.1,0,0.2-0.1,0.2-0.2c0-0.1-0.1-0.2-0.2-0.2S3.3,0.8,3.3,0.9C3.3,1,3.4,1.1,3.5,1.1z"/>
<path class="st36" d="M4.2,1.1c0.1,0,0.2-0.1,0.2-0.2c0-0.1-0.1-0.2-0.2-0.2S4,0.8,4,0.9C4,1,4.1,1.1,4.2,1.1z"/>
<path class="st36" d="M5.1,0.7C5,0.7,4.9,0.8,4.9,0.9C4.9,1,5,1.1,5.1,1.1H7c0.1,0,0.2-0.1,0.2-0.2c0-0.1-0.1-0.2-0.2-0.2H5.1z"/>
<path class="st36" d="M6,10.9c0.4,0,0.7,0.3,0.7,0.7c0,0.4-0.3,0.6-0.7,0.6s-0.7-0.3-0.7-0.6C5.4,11.2,5.7,10.9,6,10.9z M6,12.6
	c0.6,0,1-0.5,1-1.1s-0.5-1.1-1-1.1S5,11,5,11.5S5.5,12.6,6,12.6z"/>
<path class="st36" d="M7.9,11.3h0.5v0.5H7.9V11.3z M8.5,12.2c0.1,0,0.3-0.1,0.3-0.3v-0.7c0-0.1-0.1-0.3-0.3-0.3H7.8
	c-0.2,0-0.3,0.1-0.3,0.3v0.7c0,0.2,0.1,0.3,0.3,0.3H8.5z"/>
<path class="st36" d="M4.2,11.8H3.7v-0.5h0.5V11.8z M4.3,10.9H3.6c-0.2,0-0.3,0.1-0.3,0.3v0.7c0,0.2,0.1,0.3,0.3,0.3h0.7
	c0.2,0,0.3-0.1,0.3-0.3v-0.7C4.6,11,4.5,10.9,4.3,10.9z"/>
<path class="st36" d="M6.8,9.3C6.8,9.2,6.8,9.1,6.9,9h1.3c0.2,0,0.3,0.1,0.4,0.3H6.8z M6.5,8.8c0,0.3-0.2,0.5-0.5,0.5
	S5.6,9.1,5.6,8.8V8.3c0.1,0,0.1,0,0.2,0h0.5c0.1,0,0.2,0,0.2,0V8.8z M3.5,9.3C3.6,9.1,3.7,9,3.9,9h1.3c0,0.1,0.1,0.2,0.1,0.3H3.5z
	 M4.1,6.3V5.1c0-0.5,0.2-0.8,0.5-1C5,3.9,5.5,3.8,6,3.8c0.6,0,1,0.1,1.4,0.3c0.3,0.2,0.5,0.6,0.5,1v1.2c0,0.9-0.7,1.6-1.6,1.6H5.8
	C4.9,7.9,4.1,7.2,4.1,6.3z M4.7,3C5,2.8,5.5,2.7,6,2.7c0.6,0,1,0.1,1.4,0.3c0.3,0.2,0.5,0.6,0.5,1C7.5,3.6,6.9,3.3,6,3.3
	S4.5,3.6,4.1,4C4.2,3.5,4.3,3.2,4.7,3z M2.6,11c0,0.2-0.2,0.3-0.3,0.3H1.7c-0.2,0-0.3-0.2-0.3-0.3v-0.2c0-0.2,0.2-0.3,0.3-0.3h0.6
	c0.2,0,0.3,0.1,0.3,0.3V11z M1.2,9.7V9.5c0-0.2,0.2-0.3,0.3-0.3h0.6c0.2,0,0.3,0.2,0.3,0.3v0.2c0,0.2-0.2,0.3-0.3,0.3H1.5
	C1.3,10,1.2,9.9,1.2,9.7z M1,8.5V8.3C1,8.1,1.1,8,1.3,8h0.9v0.8H1.3C1.1,8.8,1,8.7,1,8.5z M0.7,7.6c-0.2,0-0.3-0.2-0.3-0.3V7.1
	c0-0.2,0.2-0.3,0.3-0.3h1.5v0.8H0.7z M3.7,6.3L3.7,6.3c-0.2,0-0.3-0.1-0.3-0.2V5.6c0-0.1,0.1-0.2,0.2-0.2h0.1V6.3z M8.3,5.5L8.3,5.5
	c0.2,0,0.3,0.1,0.3,0.2v0.5c0,0.1-0.1,0.2-0.2,0.2H8.3V5.5z M12.5,11.6l-1-1c0.1-0.3,0.1-0.5,0-0.7c0-0.1-0.1-0.2-0.2-0.2
	c-0.1,0-0.2,0.1-0.2,0.2c0,0.2,0,0.4,0,0.7c0,0.1,0,0.2,0.1,0.3l1,1l-1.3,1.3l-1-1V9.3c0,0,0-0.1,0-0.1l-0.6-1C9,7.8,9,7.5,9,7.3
	C9.1,7.1,9.3,7,9.5,6.9c0,0,1,1.8,1,1.8c0,0,0.3,0.3,0.4,0.4c0.1,0.1,0.2,0.1,0.3,0.1c0.1-0.1,0.1-0.2,0.1-0.3
	c-0.1-0.2-0.2-0.3-0.4-0.5L9.9,6.8V4.6c0-0.1-0.1-0.2-0.2-0.2S9.5,4.5,9.5,4.6v1.9c0,0-0.1,0-0.1,0C9.2,6.6,8.8,6.8,8.7,7.2
	c-0.1,0.2-0.1,0.5,0,0.8H8.2C8.1,7.9,8,8,8,8.1c0,0.1,0.1,0.2,0.2,0.2h0.7l0.6,1H9C8.9,8.9,8.6,8.6,8.1,8.6H6.9V8.3
	C7.6,8,8.2,7.4,8.3,6.7h0.1C8.7,6.7,9,6.4,9,6.1V5.6c0-0.3-0.3-0.6-0.6-0.6H8.3V4c0-1.1-0.8-1.8-2.3-1.8C4.6,2.2,3.7,2.9,3.7,4v1.1
	H3.7c-0.3,0-0.6,0.3-0.6,0.6v0.5c0,0.3,0.3,0.6,0.6,0.6h0.1C3.9,7.4,4.5,8,5.2,8.3v0.4H3.9c-0.4,0-0.8,0.3-0.8,0.7H2.8
	c0-0.1-0.1-0.2-0.2-0.3V0.8c0-0.2,0.2-0.3,0.4-0.3h6.2c0.2,0,0.4,0.1,0.4,0.3v2.8c0,0.1,0.1,0.2,0.2,0.2s0.2-0.1,0.2-0.2V0.8
	C9.9,0.3,9.5,0,9.1,0H3C2.5,0,2.2,0.3,2.2,0.8v5.6H0.7C0.3,6.3,0,6.7,0,7.1v0.2C0,7.6,0.3,7.9,0.6,8C0.6,8.1,0.6,8.2,0.6,8.3v0.2
	c0,0.3,0.2,0.5,0.4,0.6C0.8,9.2,0.8,9.4,0.8,9.5v0.2c0,0.3,0.1,0.5,0.3,0.6C1,10.5,1,10.6,1,10.8V11c0,0.4,0.3,0.7,0.7,0.7h0.5V13
	c0,0.4,0.3,0.8,0.8,0.8h1.2c0.1,0,0.2-0.1,0.2-0.2s-0.1-0.2-0.2-0.2H3c-0.2,0-0.4-0.2-0.4-0.3v-1.4C2.8,11.5,3,11.2,3,11v-0.2
	c0-0.3-0.1-0.5-0.3-0.6C2.8,10,2.8,9.9,2.8,9.7v0h6.6V13c0,0.2-0.2,0.3-0.4,0.3h-4C5,13.3,5,13.4,5,13.5s0.1,0.2,0.2,0.2h4
	c0.4,0,0.8-0.3,0.8-0.8v-0.3l0.8,0.8c0.1,0.1,0.2,0.1,0.3,0.1c0.1,0,0.2,0,0.3-0.1l1.3-1.3c0.1-0.1,0.1-0.2,0.1-0.3
	C12.6,11.8,12.6,11.7,12.5,11.6z"/>
</svg>
