<?xml version="1.0" encoding="utf-8"?>
<!-- Generator: Adobe Illustrator 24.1.1, SVG Export Plug-In . SVG Version: 6.00 Build 0)  -->
<svg version="1.1" id="Layer_1" xmlns="http://www.w3.org/2000/svg" xmlns:xlink="http://www.w3.org/1999/xlink" x="0px" y="0px"
	 viewBox="0 0 13.4 13.4" style="enable-background:new 0 0 13.4 13.4;" xml:space="preserve">
<style type="text/css">
	.st0{clip-path:url(#SVGID_2_);}
	.st1{fill:#54ECE6;}
	.st2{fill:#FFEBD2;}
	.st3{fill:#FFF3E4;}
	.st4{fill:#49D3CE;}
	.st5{fill:#AE8164;}
	.st6{fill:#A2785D;}
	.st7{fill:#AC8164;}
	.st8{fill:#A47C61;}
	.st9{fill:#333333;}
	.st10{fill:#77A0D4;}
	.st11{fill:none;stroke:#333333;stroke-width:1.4;stroke-linecap:round;stroke-linejoin:round;stroke-miterlimit:10;}
	.st12{fill:none;stroke:#333333;stroke-width:1.4;stroke-linejoin:round;stroke-miterlimit:10;}
	.st13{fill:#77A0D4;stroke:#333333;stroke-width:1.4;stroke-linejoin:round;stroke-miterlimit:10;}
	.st14{fill:#1D194D;}
	.st15{clip-path:url(#Mask-2_1_);fill:url(#);stroke:#FFFFFF;stroke-width:2;stroke-miterlimit:10;}
	.st16{fill:#1D1B4C;}
	.st17{fill:none;stroke:#FFFFFF;stroke-width:2;stroke-miterlimit:10;}
	.st18{fill:none;stroke:#FFFFFF;stroke-width:3;stroke-miterlimit:10;}
	.st19{fill:#221F1F;}
	.st20{fill:#464A51;}
	.st21{fill:#FFFFFF;}
	.st22{fill:#323643;}
	.st23{fill:#32A562;}
	.st24{fill:#1D1C1C;}
	.st25{fill:#0B2031;}
	.st26{opacity:0.2;fill:#4C4B5E;}
	.st27{fill:#1C1C1C;}
	.st28{fill:none;stroke:#1C1C1C;stroke-width:0.13;stroke-miterlimit:10;}
	.st29{fill:#2F2B2B;}
	.st30{fill:none;stroke:#000000;stroke-width:0.13;stroke-miterlimit:10;}
	.st31{fill:#272323;}
	.st32{fill:none;stroke:#1C1C1C;stroke-width:0.33;stroke-miterlimit:10;}
	.st33{fill:#54FEBD;}
	.st34{fill:none;stroke:#1D194D;stroke-width:0.17;stroke-miterlimit:10;}
	.st35{fill:#F0F3F8;}
	.st36{fill:#1B2749;}
	.st37{opacity:0.8745;fill:#49D3CE;}
	.st38{fill:#48D0CB;}
	.st39{fill:none;stroke:#1B2749;stroke-width:3.000000e-02;stroke-miterlimit:10;}
	.st40{fill:#FCD3AC;}
	.st41{fill:#FCBC85;}
	.st42{fill:#3B2519;}
	.st43{fill:#F7945E;}
	.st44{fill:#F9AA8D;}
	.st45{fill:#FA7268;}
	.st46{fill:#35A8A3;}
	.st47{fill:#35A7A3;}
	.st48{opacity:0.302;fill:#F7B500;}
	.st49{fill:#F0D217;}
	.st50{clip-path:url(#SVGID_6_);}
	.st51{clip-path:url(#SVGID_10_);}
	.st52{fill:none;stroke:#1D194D;stroke-width:0.33;stroke-miterlimit:10;}
	.st53{fill:#FDB3CB;}
	.st54{fill:none;stroke:#1D194D;stroke-width:0.67;stroke-miterlimit:10;}
	.st55{fill:#F9596C;}
	.st56{fill:#1F1B4E;}
	.st57{fill:#F1F3F8;}
	.st58{clip-path:url(#SVGID_14_);}
	.st59{clip-path:url(#SVGID_18_);}
	.st60{fill:#06090C;}
	.st61{fill:none;stroke:#000000;stroke-width:0.19;stroke-miterlimit:10;}
	.st62{clip-path:url(#SVGID_22_);}
	.st63{fill:#D4A07F;}
	.st64{fill:#C09478;}
	.st65{fill:#D1A080;}
	.st66{fill:#E0B08F;}
	.st67{fill:#D93939;}
	.st68{fill:none;stroke:#333333;stroke-width:0.67;stroke-linecap:round;stroke-linejoin:round;stroke-miterlimit:10;}
	.st69{fill:none;stroke:#333333;stroke-width:0.67;stroke-linejoin:round;stroke-miterlimit:10;}
	.st70{fill:#3B5998;}
	.st71{fill:#FBBB00;}
	.st72{fill:#518EF8;}
	.st73{fill:#28B446;}
	.st74{fill:#F14336;}
	.st75{fill:#00ACED;}
	.st76{fill:#2C2862;}
	.st77{fill:none;stroke:#49D3CE;stroke-width:0.13;stroke-miterlimit:10;}
	.st78{fill:#D8D8D8;}
	.st79{fill:none;stroke:#FE7289;stroke-width:0.33;stroke-linecap:round;stroke-linejoin:round;stroke-miterlimit:10;}
	.st80{clip-path:url(#SVGID_28_);}
	.st81{clip-path:url(#SVGID_32_);}
	.st82{clip-path:url(#SVGID_36_);}
	.st83{clip-path:url(#SVGID_40_);}
	.st84{clip-path:url(#SVGID_44_);}
	.st85{clip-path:url(#SVGID_48_);}
	.st86{clip-path:url(#SVGID_52_);}
	.st87{clip-path:url(#SVGID_56_);}
	.st88{clip-path:url(#SVGID_60_);}
	.st89{clip-path:url(#SVGID_64_);}
	.st90{fill:none;stroke:#FFFFFF;stroke-linecap:round;stroke-linejoin:round;stroke-miterlimit:10;}
	.st91{fill:url(#SVGID_67_);}
	.st92{fill:url(#SVGID_68_);}
	.st93{fill:url(#SVGID_69_);}
	.st94{fill:#475993;}
	.st95{fill:#F61C0D;}
	.st96{opacity:0.149;fill:#FA7268;}
	.st97{opacity:0.149;fill:#00BF4B;}
	.st98{fill:#00BF4B;}
	.st99{fill:#8886A0;}
</style>
<path class="st36" d="M6.9,8.3c0-0.1-0.2-0.1-0.3-0.1C6.4,8.3,6.2,8.3,6,8.4C6,8.4,5.9,8.5,5.9,8.5L5.7,9.6c0,0.1-0.1,0.2-0.2,0.2
	H4.8c-0.1,0-0.2-0.1-0.2-0.2L4.4,8.5c0-0.1-0.1-0.1-0.1-0.2C4,8.3,3.7,8.2,3.5,8.1c-0.1,0-0.2,0-0.2,0L2.3,8.7c-0.1,0.1-0.2,0-0.3,0
	L1.6,8.2C1.5,8.2,1.5,8,1.6,7.9L2.2,7c0-0.1,0-0.2,0-0.2C2.1,6.6,2,6.3,1.9,6c0-0.1-0.1-0.1-0.2-0.2L0.6,5.7c-0.1,0-0.2-0.1-0.2-0.2
	V4.8c0-0.1,0.1-0.2,0.2-0.2l1.1-0.2c0.1,0,0.1-0.1,0.2-0.1C2,4,2.1,3.7,2.2,3.5c0-0.1,0-0.2,0-0.2l-0.6-1C1.5,2.2,1.5,2.1,1.6,2
	L2,1.6c0.1-0.1,0.2-0.1,0.3,0l0.9,0.6c0.1,0.1,0.2,0.1,0.2,0C3.7,2.1,4,2,4.2,1.9c0.1,0,0.1-0.1,0.1-0.2l0.2-1.1
	c0-0.1,0.1-0.2,0.2-0.2h0.6c0.1,0,0.2,0.1,0.2,0.2l0.2,1.1C5.9,1.8,6,1.9,6,1.9C6.3,2,6.6,2.1,6.8,2.2c0.1,0,0.2,0,0.2,0l0.9-0.6
	c0.1-0.1,0.2,0,0.3,0L8.7,2c0.1,0.1,0.1,0.2,0,0.3l-0.6,1c0,0.1-0.1,0.2,0,0.2C8.2,3.7,8.3,4,8.4,4.2c0,0.1,0.1,0.1,0.2,0.1l1.1,0.2
	c0.1,0,0.2,0.1,0.2,0.2v0.6c0,0.1-0.1,0.2-0.2,0.2L8.5,5.9C8.5,5.9,8.4,6,8.4,6c0,0.2-0.1,0.4-0.2,0.5c-0.1,0.1,0,0.2,0.1,0.3
	c0.1,0,0.2,0,0.3-0.1c0.1-0.2,0.1-0.3,0.2-0.5l1-0.2C10,6,10.3,5.8,10.3,5.4V4.8c0-0.3-0.2-0.6-0.5-0.7L8.7,4
	C8.7,3.8,8.6,3.6,8.5,3.4l0.6-0.8C9.2,2.3,9.2,2,9,1.7L8.5,1.3C8.3,1.1,8,1,7.7,1.2L6.9,1.8C6.7,1.7,6.5,1.6,6.3,1.5l-0.2-1
	C6,0.2,5.8,0,5.4,0H4.8C4.5,0,4.3,0.2,4.2,0.5L4,1.5C3.8,1.6,3.6,1.7,3.4,1.8L2.6,1.2C2.3,1,2,1.1,1.7,1.3L1.3,1.7
	C1.1,2,1,2.3,1.2,2.6l0.6,0.8C1.7,3.6,1.6,3.8,1.5,4l-1,0.2C0.2,4.3,0,4.5,0,4.8v0.6C0,5.8,0.2,6,0.5,6.1l1,0.2
	c0.1,0.2,0.1,0.4,0.2,0.6L1.2,7.7C1,8,1.1,8.3,1.3,8.5L1.7,9C2,9.2,2.3,9.2,2.6,9.1l0.8-0.6C3.6,8.6,3.8,8.7,4,8.7l0.2,1
	c0.1,0.3,0.3,0.5,0.6,0.5h0.6c0.3,0,0.6-0.2,0.6-0.5l0.2-1c0.2-0.1,0.3-0.1,0.5-0.2C6.9,8.5,6.9,8.4,6.9,8.3z"/>
<path class="st39" d="M6.9,8.3c0-0.1-0.2-0.1-0.3-0.1C6.4,8.3,6.2,8.3,6,8.4C6,8.4,5.9,8.5,5.9,8.5L5.7,9.6c0,0.1-0.1,0.2-0.2,0.2
	H4.8c-0.1,0-0.2-0.1-0.2-0.2L4.4,8.5c0-0.1-0.1-0.1-0.1-0.2C4,8.3,3.7,8.2,3.5,8.1c-0.1,0-0.2,0-0.2,0L2.3,8.7c-0.1,0.1-0.2,0-0.3,0
	L1.6,8.2C1.5,8.2,1.5,8,1.6,7.9L2.2,7c0-0.1,0-0.2,0-0.2C2.1,6.6,2,6.3,1.9,6c0-0.1-0.1-0.1-0.2-0.2L0.6,5.7c-0.1,0-0.2-0.1-0.2-0.2
	V4.8c0-0.1,0.1-0.2,0.2-0.2l1.1-0.2c0.1,0,0.1-0.1,0.2-0.1C2,4,2.1,3.7,2.2,3.5c0-0.1,0-0.2,0-0.2l-0.6-1C1.5,2.2,1.5,2.1,1.6,2
	L2,1.6c0.1-0.1,0.2-0.1,0.3,0l0.9,0.6c0.1,0.1,0.2,0.1,0.2,0C3.7,2.1,4,2,4.2,1.9c0.1,0,0.1-0.1,0.1-0.2l0.2-1.1
	c0-0.1,0.1-0.2,0.2-0.2h0.6c0.1,0,0.2,0.1,0.2,0.2l0.2,1.1C5.9,1.8,6,1.9,6,1.9C6.3,2,6.6,2.1,6.8,2.2c0.1,0,0.2,0,0.2,0l0.9-0.6
	c0.1-0.1,0.2,0,0.3,0L8.7,2c0.1,0.1,0.1,0.2,0,0.3l-0.6,1c0,0.1-0.1,0.2,0,0.2C8.2,3.7,8.3,4,8.4,4.2c0,0.1,0.1,0.1,0.2,0.1l1.1,0.2
	c0.1,0,0.2,0.1,0.2,0.2v0.6c0,0.1-0.1,0.2-0.2,0.2L8.5,5.9C8.5,5.9,8.4,6,8.4,6c0,0.2-0.1,0.4-0.2,0.5c-0.1,0.1,0,0.2,0.1,0.3
	c0.1,0,0.2,0,0.3-0.1c0.1-0.2,0.1-0.3,0.2-0.5l1-0.2C10,6,10.3,5.8,10.3,5.4V4.8c0-0.3-0.2-0.6-0.5-0.7L8.7,4
	C8.7,3.8,8.6,3.6,8.5,3.4l0.6-0.8C9.2,2.3,9.2,2,9,1.7L8.5,1.3C8.3,1.1,8,1,7.7,1.2L6.9,1.8C6.7,1.7,6.5,1.6,6.3,1.5l-0.2-1
	C6,0.2,5.8,0,5.4,0H4.8C4.5,0,4.3,0.2,4.2,0.5L4,1.5C3.8,1.6,3.6,1.7,3.4,1.8L2.6,1.2C2.3,1,2,1.1,1.7,1.3L1.3,1.7
	C1.1,2,1,2.3,1.2,2.6l0.6,0.8C1.7,3.6,1.6,3.8,1.5,4l-1,0.2C0.2,4.3,0,4.5,0,4.8v0.6C0,5.8,0.2,6,0.5,6.1l1,0.2
	c0.1,0.2,0.1,0.4,0.2,0.6L1.2,7.7C1,8,1.1,8.3,1.3,8.5L1.7,9C2,9.2,2.3,9.2,2.6,9.1l0.8-0.6C3.6,8.6,3.8,8.7,4,8.7l0.2,1
	c0.1,0.3,0.3,0.5,0.6,0.5h0.6c0.3,0,0.6-0.2,0.6-0.5l0.2-1c0.2-0.1,0.3-0.1,0.5-0.2C6.9,8.5,6.9,8.4,6.9,8.3z"/>
<path class="st36" d="M7,6.3C7,6.3,7,6.3,7,6.3c0.2,0,0.2,0,0.3-0.1c0.2-0.3,0.3-0.7,0.3-1.1c0-1.3-1.1-2.4-2.4-2.4
	C4.5,2.8,3.9,3,3.5,3.4c-0.1,0.1-0.1,0.2,0,0.3c0.1,0.1,0.2,0.1,0.3,0c0.4-0.4,0.8-0.6,1.4-0.6c1.1,0,1.9,0.9,1.9,1.9
	C7.1,5.5,7,5.7,6.9,6C6.8,6.1,6.9,6.3,7,6.3z"/>
<path class="st39" d="M7,6.3C7,6.3,7,6.3,7,6.3c0.2,0,0.2,0,0.3-0.1c0.2-0.3,0.3-0.7,0.3-1.1c0-1.3-1.1-2.4-2.4-2.4
	C4.5,2.8,3.9,3,3.5,3.4c-0.1,0.1-0.1,0.2,0,0.3c0.1,0.1,0.2,0.1,0.3,0c0.4-0.4,0.8-0.6,1.4-0.6c1.1,0,1.9,0.9,1.9,1.9
	C7.1,5.5,7,5.7,6.9,6C6.8,6.1,6.9,6.3,7,6.3z"/>
<path class="st36" d="M3.2,4.2c-0.1,0-0.2,0-0.3,0.1C2.8,4.6,2.8,4.9,2.8,5.1c0,1.3,1.1,2.4,2.4,2.4c0.5,0,1-0.2,1.4-0.5
	C6.6,7,6.6,6.9,6.6,6.8c-0.1-0.1-0.2-0.1-0.3,0C5.9,7,5.6,7.1,5.1,7.1c-1.1,0-1.9-0.9-1.9-2c0-0.2,0-0.4,0.1-0.6
	C3.3,4.4,3.3,4.3,3.2,4.2z"/>
<path class="st39" d="M3.2,4.2c-0.1,0-0.2,0-0.3,0.1C2.8,4.6,2.8,4.9,2.8,5.1c0,1.3,1.1,2.4,2.4,2.4c0.5,0,1-0.2,1.4-0.5
	C6.6,7,6.6,6.9,6.6,6.8c-0.1-0.1-0.2-0.1-0.3,0C5.9,7,5.6,7.1,5.1,7.1c-1.1,0-1.9-0.9-1.9-2c0-0.2,0-0.4,0.1-0.6
	C3.3,4.4,3.3,4.3,3.2,4.2z"/>
<path class="st36" d="M12.9,9.2l-0.6-0.1c0-0.1-0.1-0.2-0.1-0.3l0.3-0.5c0.1-0.2,0.1-0.5-0.1-0.6l-0.3-0.3c-0.2-0.2-0.4-0.2-0.6-0.1
	L11,7.6c-0.1,0-0.2-0.1-0.3-0.1l-0.1-0.6c0-0.2-0.3-0.4-0.5-0.4H9.7c-0.2,0-0.4,0.2-0.5,0.4L9.1,7.5C9,7.5,8.9,7.6,8.8,7.6L8.3,7.3
	C8.1,7.1,7.8,7.2,7.6,7.3L7.3,7.6C7.2,7.8,7.1,8.1,7.3,8.3l0.3,0.5C7.5,8.9,7.5,9.1,7.4,9.2c0,0.1,0,0.2,0.1,0.3
	c0.1,0,0.2,0,0.3-0.1C7.9,9.2,8,9,8,8.9c0-0.1,0-0.2,0-0.2L7.6,8c0,0,0-0.1,0-0.1l0.3-0.3c0,0,0.1,0,0.1,0L8.6,8
	c0.1,0.1,0.2,0.1,0.2,0C9,8,9.2,7.9,9.3,7.9c0.1,0,0.1-0.1,0.2-0.2L9.6,7c0,0,0.1-0.1,0.1-0.1h0.4c0,0,0.1,0,0.1,0.1l0.1,0.7
	c0,0.1,0.1,0.1,0.2,0.2C10.7,7.9,10.8,8,11,8c0.1,0,0.2,0,0.2,0l0.6-0.4c0,0,0.1,0,0.1,0l0.3,0.3c0,0,0,0.1,0,0.1l-0.4,0.6
	c-0.1,0.1-0.1,0.2,0,0.2C11.9,9,11.9,9.2,12,9.3c0,0.1,0.1,0.1,0.2,0.1l0.7,0.1c0,0,0.1,0,0.1,0.1v0.4c0,0,0,0.1-0.1,0.1l-0.7,0.1
	c-0.1,0-0.1,0.1-0.2,0.1c0,0.2-0.1,0.3-0.2,0.5c0,0.1,0,0.2,0,0.2l0.4,0.6c0,0,0,0.1,0,0.1l-0.3,0.3c0,0-0.1,0-0.1,0l-0.6-0.4
	c-0.1,0-0.2,0-0.2,0c-0.1,0.1-0.3,0.2-0.5,0.2c-0.1,0-0.1,0.1-0.2,0.2l-0.1,0.7c0,0-0.1,0.1-0.1,0.1H9.7c0,0-0.1,0-0.1-0.1l-0.1-0.7
	c0-0.1-0.1-0.1-0.2-0.2c-0.2,0-0.3-0.1-0.5-0.2c-0.1,0-0.2,0-0.2,0L8,12.2c0,0-0.1,0-0.1,0l-0.3-0.3c0,0,0-0.1,0-0.1L8,11.2
	c0-0.1,0-0.2,0-0.2c-0.1-0.2-0.2-0.3-0.2-0.5c0-0.1-0.1-0.1-0.2-0.1L7,10.2c0,0-0.1,0-0.1-0.1V9.7c0,0,0-0.1,0.1-0.1l0.1,0
	c0.1,0,0.2-0.1,0.2-0.2c0-0.1-0.1-0.2-0.2-0.2l-0.1,0c-0.2,0-0.4,0.3-0.4,0.5v0.4c0,0.2,0.2,0.5,0.4,0.5l0.6,0.1
	c0,0.1,0.1,0.2,0.1,0.3l-0.3,0.5c-0.1,0.2-0.1,0.5,0.1,0.6l0.3,0.3c0.2,0.2,0.4,0.2,0.6,0.1l0.5-0.3c0.1,0,0.2,0.1,0.3,0.1l0.1,0.6
	c0.1,0.2,0.3,0.4,0.5,0.4h0.4c0.2,0,0.5-0.2,0.5-0.4l0.1-0.6c0.1,0,0.2-0.1,0.3-0.1l0.5,0.3c0.2,0.1,0.5,0.1,0.6-0.1l0.3-0.3
	c0.2-0.2,0.2-0.4,0.1-0.6L12.2,11c0.1-0.1,0.1-0.2,0.1-0.3l0.6-0.1c0.2,0,0.4-0.3,0.4-0.5V9.7C13.3,9.5,13.2,9.3,12.9,9.2z"/>
<path class="st39" d="M12.9,9.2l-0.6-0.1c0-0.1-0.1-0.2-0.1-0.3l0.3-0.5c0.1-0.2,0.1-0.5-0.1-0.6l-0.3-0.3c-0.2-0.2-0.4-0.2-0.6-0.1
	L11,7.6c-0.1,0-0.2-0.1-0.3-0.1l-0.1-0.6c0-0.2-0.3-0.4-0.5-0.4H9.7c-0.2,0-0.4,0.2-0.5,0.4L9.1,7.5C9,7.5,8.9,7.6,8.8,7.6L8.3,7.3
	C8.1,7.1,7.8,7.2,7.6,7.3L7.3,7.6C7.2,7.8,7.1,8.1,7.3,8.3l0.3,0.5C7.5,8.9,7.5,9.1,7.4,9.2c0,0.1,0,0.2,0.1,0.3
	c0.1,0,0.2,0,0.3-0.1C7.9,9.2,8,9,8,8.9c0-0.1,0-0.2,0-0.2L7.6,8c0,0,0-0.1,0-0.1l0.3-0.3c0,0,0.1,0,0.1,0L8.6,8
	c0.1,0.1,0.2,0.1,0.2,0C9,8,9.2,7.9,9.3,7.9c0.1,0,0.1-0.1,0.2-0.2L9.6,7c0,0,0.1-0.1,0.1-0.1h0.4c0,0,0.1,0,0.1,0.1l0.1,0.7
	c0,0.1,0.1,0.1,0.2,0.2C10.7,7.9,10.8,8,11,8c0.1,0,0.2,0,0.2,0l0.6-0.4c0,0,0.1,0,0.1,0l0.3,0.3c0,0,0,0.1,0,0.1l-0.4,0.6
	c-0.1,0.1-0.1,0.2,0,0.2C11.9,9,11.9,9.2,12,9.3c0,0.1,0.1,0.1,0.2,0.1l0.7,0.1c0,0,0.1,0,0.1,0.1v0.4c0,0,0,0.1-0.1,0.1l-0.7,0.1
	c-0.1,0-0.1,0.1-0.2,0.1c0,0.2-0.1,0.3-0.2,0.5c0,0.1,0,0.2,0,0.2l0.4,0.6c0,0,0,0.1,0,0.1l-0.3,0.3c0,0-0.1,0-0.1,0l-0.6-0.4
	c-0.1,0-0.2,0-0.2,0c-0.1,0.1-0.3,0.2-0.5,0.2c-0.1,0-0.1,0.1-0.2,0.2l-0.1,0.7c0,0-0.1,0.1-0.1,0.1H9.7c0,0-0.1,0-0.1-0.1l-0.1-0.7
	c0-0.1-0.1-0.1-0.2-0.2c-0.2,0-0.3-0.1-0.5-0.2c-0.1,0-0.2,0-0.2,0L8,12.2c0,0-0.1,0-0.1,0l-0.3-0.3c0,0,0-0.1,0-0.1L8,11.2
	c0-0.1,0-0.2,0-0.2c-0.1-0.2-0.2-0.3-0.2-0.5c0-0.1-0.1-0.1-0.2-0.1L7,10.2c0,0-0.1,0-0.1-0.1V9.7c0,0,0-0.1,0.1-0.1l0.1,0
	c0.1,0,0.2-0.1,0.2-0.2c0-0.1-0.1-0.2-0.2-0.2l-0.1,0c-0.2,0-0.4,0.3-0.4,0.5v0.4c0,0.2,0.2,0.5,0.4,0.5l0.6,0.1
	c0,0.1,0.1,0.2,0.1,0.3l-0.3,0.5c-0.1,0.2-0.1,0.5,0.1,0.6l0.3,0.3c0.2,0.2,0.4,0.2,0.6,0.1l0.5-0.3c0.1,0,0.2,0.1,0.3,0.1l0.1,0.6
	c0.1,0.2,0.3,0.4,0.5,0.4h0.4c0.2,0,0.5-0.2,0.5-0.4l0.1-0.6c0.1,0,0.2-0.1,0.3-0.1l0.5,0.3c0.2,0.1,0.5,0.1,0.6-0.1l0.3-0.3
	c0.2-0.2,0.2-0.4,0.1-0.6L12.2,11c0.1-0.1,0.1-0.2,0.1-0.3l0.6-0.1c0.2,0,0.4-0.3,0.4-0.5V9.7C13.3,9.5,13.2,9.3,12.9,9.2z"/>
<path class="st36" d="M9.9,9.2c0.4,0,0.8,0.3,0.8,0.8c0,0.1,0.1,0.2,0.2,0.2c0.1,0,0.2-0.1,0.2-0.2c0-0.6-0.5-1.2-1.2-1.2
	S8.7,9.3,8.7,9.9c0,0.7,0.5,1.2,1.2,1.2c0.3,0,0.5-0.1,0.7-0.2c0.1-0.1,0.1-0.2,0-0.3c-0.1-0.1-0.2-0.1-0.3,0
	c-0.1,0.1-0.3,0.2-0.5,0.2c-0.4,0-0.8-0.3-0.8-0.8C9.2,9.5,9.5,9.2,9.9,9.2z"/>
<path class="st39" d="M9.9,9.2c0.4,0,0.8,0.3,0.8,0.8c0,0.1,0.1,0.2,0.2,0.2c0.1,0,0.2-0.1,0.2-0.2c0-0.6-0.5-1.2-1.2-1.2
	S8.7,9.3,8.7,9.9c0,0.7,0.5,1.2,1.2,1.2c0.3,0,0.5-0.1,0.7-0.2c0.1-0.1,0.1-0.2,0-0.3c-0.1-0.1-0.2-0.1-0.3,0
	c-0.1,0.1-0.3,0.2-0.5,0.2c-0.4,0-0.8-0.3-0.8-0.8C9.2,9.5,9.5,9.2,9.9,9.2z"/>
<path class="st36" d="M4.3,5.1c0-0.5,0.4-0.9,0.9-0.9C5.6,4.3,6,4.7,6,5.1C6,5.6,5.6,6,5.1,6C4.7,6,4.3,5.6,4.3,5.1z M6.4,5.1
	c0-0.7-0.6-1.3-1.3-1.3c-0.7,0-1.3,0.6-1.3,1.3c0,0.7,0.6,1.3,1.3,1.3C5.8,6.4,6.4,5.8,6.4,5.1z"/>
<path class="st39" d="M4.3,5.1c0-0.5,0.4-0.9,0.9-0.9C5.6,4.3,6,4.7,6,5.1C6,5.6,5.6,6,5.1,6C4.7,6,4.3,5.6,4.3,5.1z M6.4,5.1
	c0-0.7-0.6-1.3-1.3-1.3c-0.7,0-1.3,0.6-1.3,1.3c0,0.7,0.6,1.3,1.3,1.3C5.8,6.4,6.4,5.8,6.4,5.1z"/>
</svg>
