<?xml version="1.0" encoding="utf-8"?>
<!-- Generator: Adobe Illustrator 24.1.1, SVG Export Plug-In . SVG Version: 6.00 Build 0)  -->
<svg version="1.1" id="Layer_1" xmlns="http://www.w3.org/2000/svg" xmlns:xlink="http://www.w3.org/1999/xlink" x="0px" y="0px"
	 viewBox="0 0 9.2 12.7" style="enable-background:new 0 0 9.2 12.7;" xml:space="preserve">
<style type="text/css">
	.st0{clip-path:url(#SVGID_2_);}
	.st1{fill:#54ECE6;}
	.st2{fill:#FFEBD2;}
	.st3{fill:#FFF3E4;}
	.st4{fill:#49D3CE;}
	.st5{fill:#AE8164;}
	.st6{fill:#A2785D;}
	.st7{fill:#AC8164;}
	.st8{fill:#A47C61;}
	.st9{fill:#333333;}
	.st10{fill:#77A0D4;}
	.st11{fill:none;stroke:#333333;stroke-width:1.4;stroke-linecap:round;stroke-linejoin:round;stroke-miterlimit:10;}
	.st12{fill:none;stroke:#333333;stroke-width:1.4;stroke-linejoin:round;stroke-miterlimit:10;}
	.st13{fill:#77A0D4;stroke:#333333;stroke-width:1.4;stroke-linejoin:round;stroke-miterlimit:10;}
	.st14{fill:#1D194D;}
	.st15{clip-path:url(#Mask-2_1_);fill:url(#);stroke:#FFFFFF;stroke-width:2;stroke-miterlimit:10;}
	.st16{fill:#1D1B4C;}
	.st17{fill:none;stroke:#FFFFFF;stroke-width:2;stroke-miterlimit:10;}
	.st18{fill:none;stroke:#FFFFFF;stroke-width:3;stroke-miterlimit:10;}
	.st19{fill:#221F1F;}
	.st20{fill:#464A51;}
	.st21{fill:#FFFFFF;}
	.st22{fill:#323643;}
	.st23{fill:#32A562;}
	.st24{fill:#1D1C1C;}
	.st25{fill:#0B2031;}
	.st26{opacity:0.2;fill:#4C4B5E;}
	.st27{fill:#1C1C1C;}
	.st28{fill:none;stroke:#1C1C1C;stroke-width:0.13;stroke-miterlimit:10;}
	.st29{fill:#2F2B2B;}
	.st30{fill:none;stroke:#000000;stroke-width:0.13;stroke-miterlimit:10;}
	.st31{fill:#272323;}
	.st32{fill:none;stroke:#1C1C1C;stroke-width:0.33;stroke-miterlimit:10;}
	.st33{fill:#54FEBD;}
	.st34{fill:none;stroke:#1D194D;stroke-width:0.17;stroke-miterlimit:10;}
	.st35{fill:#F0F3F8;}
	.st36{fill:#1B2749;}
	.st37{opacity:0.8745;fill:#49D3CE;}
	.st38{fill:#48D0CB;}
	.st39{fill:none;stroke:#1B2749;stroke-width:3.000000e-02;stroke-miterlimit:10;}
	.st40{fill:#FCD3AC;}
	.st41{fill:#FCBC85;}
	.st42{fill:#3B2519;}
	.st43{fill:#F7945E;}
	.st44{fill:#F9AA8D;}
	.st45{fill:#FA7268;}
	.st46{fill:#35A8A3;}
	.st47{fill:#35A7A3;}
	.st48{opacity:0.302;fill:#F7B500;}
	.st49{fill:#F0D217;}
	.st50{clip-path:url(#SVGID_6_);}
	.st51{clip-path:url(#SVGID_10_);}
	.st52{fill:none;stroke:#1D194D;stroke-width:0.33;stroke-miterlimit:10;}
	.st53{fill:#FDB3CB;}
	.st54{fill:none;stroke:#1D194D;stroke-width:0.67;stroke-miterlimit:10;}
	.st55{fill:#F9596C;}
	.st56{fill:#1F1B4E;}
	.st57{fill:#F1F3F8;}
	.st58{clip-path:url(#SVGID_14_);}
	.st59{clip-path:url(#SVGID_18_);}
	.st60{fill:#06090C;}
	.st61{fill:none;stroke:#000000;stroke-width:0.19;stroke-miterlimit:10;}
	.st62{clip-path:url(#SVGID_22_);}
	.st63{fill:#D4A07F;}
	.st64{fill:#C09478;}
	.st65{fill:#D1A080;}
	.st66{fill:#E0B08F;}
	.st67{fill:#D93939;}
	.st68{fill:none;stroke:#333333;stroke-width:0.67;stroke-linecap:round;stroke-linejoin:round;stroke-miterlimit:10;}
	.st69{fill:none;stroke:#333333;stroke-width:0.67;stroke-linejoin:round;stroke-miterlimit:10;}
	.st70{fill:#3B5998;}
	.st71{fill:#FBBB00;}
	.st72{fill:#518EF8;}
	.st73{fill:#28B446;}
	.st74{fill:#F14336;}
	.st75{fill:#00ACED;}
	.st76{fill:#2C2862;}
	.st77{fill:none;stroke:#49D3CE;stroke-width:0.13;stroke-miterlimit:10;}
	.st78{fill:#D8D8D8;}
	.st79{fill:none;stroke:#FE7289;stroke-width:0.33;stroke-linecap:round;stroke-linejoin:round;stroke-miterlimit:10;}
	.st80{clip-path:url(#SVGID_28_);}
	.st81{clip-path:url(#SVGID_32_);}
	.st82{clip-path:url(#SVGID_36_);}
	.st83{clip-path:url(#SVGID_40_);}
	.st84{clip-path:url(#SVGID_44_);}
	.st85{clip-path:url(#SVGID_48_);}
	.st86{clip-path:url(#SVGID_52_);}
	.st87{clip-path:url(#SVGID_56_);}
	.st88{clip-path:url(#SVGID_60_);}
	.st89{clip-path:url(#SVGID_64_);}
	.st90{fill:none;stroke:#FFFFFF;stroke-linecap:round;stroke-linejoin:round;stroke-miterlimit:10;}
	.st91{fill:url(#SVGID_67_);}
	.st92{fill:url(#SVGID_68_);}
	.st93{fill:url(#SVGID_69_);}
	.st94{fill:#475993;}
	.st95{fill:#F61C0D;}
	.st96{opacity:0.149;fill:#FA7268;}
	.st97{opacity:0.149;fill:#00BF4B;}
	.st98{fill:#00BF4B;}
	.st99{fill:#8886A0;}
</style>
<rect x="3.7" y="9.4" class="st40" width="1.9" height="2.1"/>
<path class="st41" d="M3.7,9.7c0,0,0.8,0.5,1.9,0.4V9.4H3.7V9.7z"/>
<path class="st40" d="M0.9,7.2c0.5,0,0.9-0.5,0.9-1.1c0-0.6-0.4-1-0.9-1C0.4,5.1,0,5.6,0,6.1C0,6.7,0.4,7.2,0.9,7.2z"/>
<path class="st40" d="M8.3,7.2c0.5,0,0.9-0.5,0.9-1.1c0-0.6-0.4-1-0.9-1s-0.9,0.5-0.9,1C7.3,6.7,7.8,7.2,8.3,7.2z"/>
<path class="st40" d="M8.3,4.1c0-1.5-1.1-2.7-3.7-2.7c-2.5,0-3.7,1.1-3.7,2.7c0,1.6-0.3,5.6,3.7,5.6C8.5,9.8,8.3,5.7,8.3,4.1z"/>
<path class="st42" d="M2.8,6.3c0.2,0,0.4-0.2,0.4-0.4S3,5.5,2.8,5.5c-0.2,0-0.4,0.2-0.4,0.4S2.6,6.3,2.8,6.3z"/>
<path class="st21" d="M2.6,5.8c0.1,0,0.1-0.1,0.1-0.1c0-0.1-0.1-0.1-0.1-0.1c-0.1,0-0.1,0-0.1,0.1C2.5,5.8,2.6,5.8,2.6,5.8z"/>
<path class="st14" d="M2.2,4.8c0.2,0.1,0.5-0.3,1.2,0c0.1,0.1,0.2-0.6-0.5-0.6C2.2,4.3,2.1,4.8,2.2,4.8z"/>
<path class="st42" d="M6.4,6.3c0.2,0,0.4-0.2,0.4-0.4S6.7,5.5,6.4,5.5C6.2,5.5,6,5.6,6,5.9S6.2,6.3,6.4,6.3z"/>
<path class="st21" d="M6.3,5.8c0.1,0,0.1-0.1,0.1-0.1c0-0.1-0.1-0.1-0.1-0.1c-0.1,0-0.1,0-0.1,0.1C6.1,5.8,6.2,5.8,6.3,5.8z"/>
<path class="st14" d="M7,4.8c-0.2,0.1-0.5-0.3-1.2,0C5.7,4.9,5.6,4.3,6.4,4.3C7,4.3,7.1,4.8,7,4.8z"/>
<path class="st41" d="M4.6,7.4C4.2,7.4,4,7.1,4,7.3s0.1,0.4,0.6,0.4c0.5,0,0.6-0.3,0.6-0.4S5,7.4,4.6,7.4z"/>
<path class="st41" d="M4.6,8.7c-0.1,0-0.2-0.1-0.2-0.1S4.4,8.8,4.6,8.7c0.2,0.1,0.2,0,0.2-0.1S4.7,8.7,4.6,8.7z"/>
<path class="st43" d="M4.6,8.4c-0.6,0-1-0.3-1-0.2c0,0.1,0.2,0.3,1,0.3c0.8,0,1-0.3,1-0.3C5.6,8.1,5.2,8.4,4.6,8.4z"/>
<path class="st44" d="M4.6,10.3v2.4h4.6C9.2,11.7,6.8,10.3,4.6,10.3z M4.6,10.3v2.4H0C0,11.7,2.4,10.3,4.6,10.3z"/>
<path class="st45" d="M4.6,10.3c-0.5,0-0.9,0.1-1.4,0.2c0,0,0.5,0.7,1.4,0.7c0.8,0,1.4-0.6,1.5-0.7C5.6,10.3,5.1,10.3,4.6,10.3z"/>
<path class="st40" d="M3.7,10.4c0,0,0.3,0.3,0.9,0.3c0.7,0,1-0.3,1-0.3S4.6,10,3.7,10.4z"/>
<path class="st14" d="M4.6,8.9v0.9c2,0,2.6-1.1,2.8-1.3c0.1-0.2-0.9,0.8-1.9,0.8C5.1,9.3,5.1,8.9,4.6,8.9z M4.6,9v0.9
	c-2,0-2.6-1.1-2.8-1.3C1.6,8.3,2.7,9.3,3.7,9.3C4.1,9.3,4,9,4.6,9z"/>
<path class="st14" d="M4.6,3.1V0c3.2,0,3.8,1.2,4,3.5c0.2,2.3-0.2,3-0.4,3C8,6.5,8.1,3.9,7.8,3.4C7.2,2.4,6.2,3.1,4.6,3.1z M4.6,3.1
	V0c-3.2,0-3.8,1.2-4,3.5c-0.2,2.3,0.2,3,0.4,3c0.2,0,0.1-2.6,0.4-3.2C2,2.4,3,3.1,4.6,3.1z"/>
<path class="st4" d="M2.6,10.6C1.2,11.1,0,12,0,12.7h2.6V10.6z"/>
<path class="st46" d="M2.7,12.7v-2.2c0,0-0.4,0.1-0.5,0.2l-0.4,2H2.7z"/>
<path class="st4" d="M6.6,10.6c1.4,0.5,2.6,1.4,2.6,2H6.6V10.6z"/>
<path class="st47" d="M6.5,12.7v-2.2c0,0,0.4,0.1,0.5,0.2l0.4,2H6.5z"/>
</svg>
